<svg width="1420" height="299" viewBox="0 0 1420 299" fill="none" xmlns="http://www.w3.org/2000/svg">
<path d="M176.831 285.177C177.251 285.552 177.697 285.552 178.117 285.952C185.884 279.774 192.365 274.371 200.132 267.418C204.435 261.616 210.497 259.69 217.398 257.764C233.666 253.958 249.804 250.341 265.889 246.77C295.461 240.193 324.824 233.733 354.16 226.475C378.327 220.297 403.78 212.568 428.367 201.763C437.419 197.511 448.204 192.884 455.105 184.004C462.557 177.004 463.869 169.488 459.776 163.38C458.962 162.159 457.913 160.984 456.653 159.904C456.575 159.833 456.496 159.739 456.391 159.669C454.239 158.518 451.641 157.343 450.356 155.041C436.107 149.638 421.439 146.162 406.351 143.836C383.05 139.585 359.329 137.658 335.609 134.558C329.993 133.407 323.958 132.232 318.789 131.457C318.789 131.081 318.789 130.306 318.789 129.131C321.806 127.581 325.69 124.88 329.573 124.105C342.51 118.702 356.758 112.9 370.56 107.873C405.932 93.5909 441.749 77.3592 474.969 56.1241C484.021 49.5469 493.966 42.2179 501.287 34.4897C514.67 20.9829 511.206 7.07669 496.538 2.82497C493.52 2.44913 490.923 1.67395 489.191 1.27462C470.193 -1.80259 449.936 1.27462 430.098 4.35183C378.327 13.2311 325.27 30.238 275.65 50.322C259.25 57.2751 241.565 65.0034 227.316 76.9834C224.299 79.3089 220.835 82.0103 219.13 85.4868C218.264 86.6378 218.264 89.7385 218.264 91.6647C219.995 94.3661 223.433 91.6647 224.745 90.5137C233.798 81.6344 246.314 75.8323 257.965 70.0538C285.149 57.2986 311.888 48.4193 339.492 39.1642C352.428 34.9125 365.811 31.0601 381.345 27.1843C378.747 30.6608 377.907 32.2111 377.041 33.738C357.204 59.6241 336.921 85.4868 317.083 110.598C313.2 116 309.316 120.252 303.281 123.353C299.844 124.903 296.38 128.756 295.96 134.558C295.094 137.259 293.808 139.96 291.657 142.662C271.636 166.481 250.906 190.699 230.334 214.894C222.541 224.055 214.774 233.193 207.085 242.307C204.068 246.559 199.318 247.334 195.435 248.861C165.233 254.663 135.897 260.841 106.98 267.394C79.3757 273.197 52.1912 278.2 25.8726 287.854C19.9948 289.428 14.2745 291.401 8.39677 293.562C5.64158 294.573 2.86015 295.63 0 296.734C0 297.11 0 297.885 0 298.284C4.11967 297.955 8.26557 297.579 12.3852 297.133C71.2676 291.002 130.229 275.099 190.685 263.918C185.044 271.67 180.294 278.623 176.831 285.177ZM367.962 64.651C377.461 52.6711 386.514 40.3152 394.701 27.9594C397.718 23.7077 400.736 21.7815 405.905 21.0063C421.859 19.456 438.259 15.9795 453.793 14.4291C463.712 13.6539 474.077 14.0533 484.415 14.0533C488.299 14.0533 494.78 14.0533 495.62 19.456C496.485 24.8587 491.29 28.3353 486.987 31.0366C476.202 39.5401 464.552 47.6442 452.481 54.5972C424.877 71.2048 395.96 83.5606 367.49 95.1412C358.857 98.6178 350.224 102.094 342.037 105.947C340.305 106.323 339.44 106.323 335.582 107.873C347.679 91.6882 358.044 78.1579 367.962 64.651ZM229.468 234.579C232.827 230.726 236.107 226.921 239.439 223.069C260.484 198.78 280.898 174.608 300.657 149.591C304.094 146.514 305.826 143.789 310.156 144.964C344.661 148.816 379.193 150.742 412.413 158.471C421.466 160.796 429.679 163.498 439.151 165.8C440.883 166.951 443.455 167.726 445.186 169.276C448.624 171.602 448.624 174.303 445.186 177.004C441.303 180.082 437 183.182 432.25 185.884C409.395 196.689 386.514 204.417 363.213 209.82C326.818 218.934 290.712 227.532 254.186 236.247C247.39 237.867 240.62 239.488 233.798 241.109C231.2 241.485 228.628 241.485 223.879 241.884C226.87 238.455 228.182 236.528 229.468 234.579Z" fill="black"/>
<path d="M858.046 91.2881C848.127 91.2881 843.377 98.2412 842.512 104.419C840.36 114.074 843.377 114.449 851.564 110.198C857.18 107.12 863.215 101.694 864.501 97.8418C865.367 94.3888 862.795 91.2881 858.046 91.2881Z" fill="black"/>
<path d="M977.099 157.718C975.367 158.493 973.661 158.493 970.197 160.044C972.349 156.966 973.635 155.017 974.501 153.49C977.938 149.637 981.402 145.761 984 141.909C986.151 139.208 986.597 136.506 984 134.181C981.402 132.631 978.384 133.805 975.813 135.731C970.643 141.298 965.212 146.866 961.25 153.419C959.387 153.396 957.077 153.654 954.243 154.265C948.628 155.416 943.459 157.741 937.844 159.668C924.461 165.07 910.239 168.946 894.705 170.097C890.402 170.872 885.652 170.872 881.323 169.721C875.288 168.57 874.002 165.47 875.707 160.443C876.573 158.517 877.439 156.966 878.725 155.416C886.912 146.137 897.696 138.409 911.525 134.956C920.158 133.03 921.89 134.58 923.175 142.684C924.041 143.459 924.907 146.161 925.773 146.161C927.925 146.161 929.657 145.01 930.942 144.235C936.978 138.057 933.96 128.402 925.327 125.701C920.158 124.151 914.123 123.775 908.927 125.325C891.241 128.802 878.305 137.681 867.521 150.436C866.917 151.54 866.287 152.785 865.684 154.007C863.69 154.523 861.38 155.768 858.888 158.164C849.835 167.044 801.947 189.453 819.187 157.788C824.802 149.285 830.837 141.557 836.453 133.453C845.505 122.647 831.703 115.694 826.088 122.248C819.029 130.798 814.332 142.567 808.218 151.704C807.09 152.08 805.857 152.762 804.519 153.537C801.921 154.688 800.215 156.637 797.617 158.164C790.192 163.731 780.378 170.144 770.984 175.453C763.427 179.728 756.158 183.299 750.596 185.201C729.315 193.118 732.385 177.45 739.627 161.5C739.968 160.983 740.178 160.49 740.309 160.02C741.7 157.037 743.222 154.077 744.744 151.282C745.557 149.802 746.345 148.345 747.132 146.983C759.648 125.748 783.369 92.1335 803.207 69.7239C830.391 70.4991 937.398 71.2743 968.885 66.2474C980.956 63.9219 983.134 58.1433 968.885 57.3681C960.699 56.9923 948.182 58.1433 934.38 59.2943C890.795 63.546 835.141 64.3212 810.554 60.4453C816.458 52.7171 819.528 48.3949 821.601 45.3177C825.432 39.633 825.878 38.2706 834.275 28.0054C835.14 26.4551 837.712 24.1296 838.158 22.2034C838.158 20.2772 837.738 16.8006 836.426 16.0255C832.989 13.3241 828.659 16.8006 826.927 19.8778C810.527 39.1867 813.125 38.0357 797.145 58.1198C796.725 58.895 795.859 59.6701 794.993 60.046C775.156 62.3715 754.007 62.3715 735.035 60.8212C722.965 60.046 719.921 63.1467 718.215 65.4487C717.35 66.9991 718.635 72.4018 732.018 70.8514C747.971 70.8514 769.121 70.4756 788.119 70.0763C784.812 74.8213 781.034 79.8717 777.072 85.1569C764.555 101.835 749.808 120.838 739.076 139.725C736.82 143.671 734.747 147.641 732.91 151.564C732.175 153.067 731.44 154.735 730.679 156.496C728.79 156.896 726.665 157.554 724.277 158.517C709.189 165.47 687.593 176.275 672.505 181.302C660.855 185.554 660.435 180.926 664.319 171.272C668.202 163.544 674.683 156.99 673.371 148.862C671.64 131.855 653.954 136.882 641.883 142.285C627.635 148.463 612.967 157.342 600.451 166.621C590.48 174.185 597.223 167.372 603.206 161.265C604.072 160.748 604.728 160.067 605.148 159.268C606.906 157.46 608.401 155.886 609.084 155.04C613.387 150.013 616.851 144.235 620.734 138.808C625.037 132.631 625.903 129.154 623.332 127.604C620.734 125.278 616.851 127.604 612.547 132.631C611.681 134.557 610.815 135.731 609.53 137.258C605.751 142.355 601.894 147.382 597.932 152.315C597.905 152.315 597.905 152.315 597.879 152.315C595.281 153.09 592.71 153.866 590.112 155.017C578.042 165.047 524.092 175.101 512.888 165.047C509.005 161.57 509.005 157.319 517.637 157.319C523.253 157.319 529.288 156.943 534.457 155.768C541.358 153.842 547.84 151.517 553.429 148.439C557.312 146.513 559.044 143.037 558.178 139.161C557.312 135.308 553.875 132.983 549.545 132.584C539.18 132.584 527.53 134.134 517.191 138.386C507.693 143.013 505.541 145.715 501.657 155.768C495.622 176.628 519.343 178.178 534.877 177.403C552.012 176.534 569.645 173.503 586.281 167.96C584.287 170.732 582.293 173.48 580.167 176.252C578.016 178.577 577.15 181.654 580.167 184.356C583.605 187.433 587.068 185.507 589.666 184.356C591.818 183.581 593.13 182.03 594.415 180.879C603.468 175.101 611.681 169.299 620.314 163.896C629.367 158.869 639.286 153.866 648.785 149.215C666.89 143.812 662.167 152.292 656.971 163.497C655.686 168.124 653.088 171.601 651.802 176.628C650.516 183.181 652.668 187.433 657.837 189.759C663.453 191.685 669.488 191.309 675.523 188.983C692.369 182.876 709.556 176.416 726.114 169.651C721.994 185.742 723.91 201.715 751.435 193.235C759.832 190.628 769.2 186.352 778.016 181.701C788.171 176.346 797.591 170.52 803.968 166.245C803.154 172.517 807.379 178.624 814.831 179.728C819.134 180.503 824.33 180.104 828.633 179.728C840.782 177.097 851.96 172.211 862.745 166.997C863.847 173.597 869.436 178.46 878.226 180.503C883.396 181.654 889.011 182.054 893.761 180.879C914.464 179.728 933.461 173.55 952.433 166.198C954.112 165.587 955.739 164.929 957.235 164.154C957.209 164.46 957.182 164.765 957.182 165.047C957.182 170.074 960.2 172.775 965.815 172.775C968.833 172.775 971.851 172 974.448 170.849C981.349 168.148 986.965 163.896 993 160.419C997.303 158.094 1000.77 155.392 1005.07 152.691C1005.49 154.617 1005.94 155.017 1005.94 156.168C1005.46 164.248 1009.95 168.641 1016.69 170.379C1025.41 172.611 1037.84 170.332 1048.23 165.658C1048.26 167.325 1048.79 169.064 1049.94 170.849C1052.54 175.101 1057.71 176.651 1063.32 175.876C1067.21 175.5 1071.96 175.101 1075.39 172.775C1090.48 165.822 1104.31 157.319 1118.98 149.215C1118.11 154.241 1117.25 158.493 1117.25 162.721C1117.25 185.084 1149.15 175.617 1167.08 165.611C1170.49 168.57 1174.71 170.027 1178.94 168.148C1185.39 166.597 1190.59 165.07 1197.04 161.97C1203.94 158.892 1216.88 149.614 1224.23 146.513C1223.36 146.513 1222.07 158.869 1212.58 171.624C1207.41 180.903 1197.04 187.856 1185.81 190.933C1156.47 202.138 1126.27 213.343 1098.67 229.551C1095.7 231.594 1092.66 233.615 1089.56 235.635C1082.74 240.098 1075.73 244.585 1068.89 249.635C1064.14 253.511 1059.39 258.913 1056.37 264.316C1050.75 272.82 1055.5 281.3 1066.29 283.249C1071.04 284.4 1076.21 284.8 1081.82 284.4C1098.9 283.179 1114.07 277.8 1128.66 270.659C1132.49 268.779 1136.3 266.806 1140.07 264.716C1168.13 248.883 1188.83 226.098 1206.09 200.987C1209.11 196.359 1213.42 190.557 1218.16 188.631C1232.41 184.379 1245.77 179.752 1259.15 175.899C1284.05 167.983 1271.59 174.466 1291.32 168.852C1291.58 169.51 1291.9 170.191 1292.34 170.872C1294.94 175.124 1300.11 176.675 1305.73 175.899C1309.61 175.524 1314.36 175.124 1317.8 172.799C1332.89 165.846 1346.71 157.342 1361.38 149.238C1360.52 154.265 1359.65 158.517 1359.65 162.745C1359.65 189.383 1404.94 170.849 1417.9 160.044C1421.79 158.493 1419.63 155.416 1416.62 154.641C1414.02 154.265 1411.45 156.191 1409.27 156.966C1401.08 160.443 1392.87 165.07 1385.97 166.621C1359.65 173.574 1382.09 136.506 1385.55 129.929C1387.28 127.228 1388.57 124.902 1388.99 122.201C1389.41 119.875 1388.57 117.949 1387.25 116.422C1385.52 115.647 1382.51 115.647 1380.77 116.046C1379.04 116.422 1377.34 118.372 1376.02 119.899C1372.14 123.375 1368.26 127.228 1364.37 130.704C1361.78 133.406 1358.34 134.181 1355.32 133.805C1334.62 132.255 1316.93 138.433 1301.82 150.013C1299.98 151.446 1298.51 152.785 1297.17 154.171C1296.31 154.406 1295.41 154.711 1294.5 155.04C1258.68 166.621 1265.58 163.544 1230.21 174.748L1219.42 177.826C1227.19 164.319 1234.54 149.238 1241.86 134.181C1243.59 130.704 1244.01 127.604 1240.99 125.302C1239.26 122.6 1235.82 123.751 1232.36 124.526C1229.76 125.302 1227.61 125.302 1225.01 125.677C1221.58 125.677 1217.69 125.677 1214.23 126.453C1201.29 129.53 1189.64 134.557 1179.28 143.06C1174.53 146.161 1170.64 150.389 1167.63 154.641C1166.92 155.486 1166.37 156.379 1165.95 157.319C1158.02 160.748 1150.15 165.117 1143.46 166.621C1117.14 173.574 1139.58 136.506 1143.04 129.929C1144.77 127.228 1146.06 124.902 1146.48 122.201C1146.9 119.875 1146.06 117.949 1144.75 116.422C1143.01 115.647 1140 115.647 1138.26 116.046C1136.53 116.422 1134.83 118.372 1133.51 119.899C1129.63 123.375 1125.75 127.228 1121.86 130.704C1119.27 133.406 1115.83 134.181 1112.81 133.805C1092.11 132.255 1074.42 138.433 1059.31 150.013C1057.1 151.751 1055.42 153.325 1053.82 155.04C1050.6 155.933 1047.08 157.178 1045.09 157.718C1033.02 161.195 1014.02 168.523 1019.63 149.215C1020.92 146.137 1022.23 142.637 1023.52 139.184C1025.25 136.107 1024.8 133.006 1021.37 131.855C1019.21 130.704 1015.33 130.704 1013.6 131.855C1012.31 132.184 1011.26 132.865 1010.32 133.617C1009.03 134.651 1007.93 135.825 1006.7 136.483C996.962 143.835 987.043 150.765 977.099 157.718ZM546.554 143.835C539.653 149.637 522.833 153.114 514.2 152.339C528.448 143.835 554.321 134.933 546.554 143.835ZM1120.89 263.612C1110.71 268.826 1100.32 272.961 1090.11 275.521C1056.89 282.474 1064.21 265.867 1085.36 252.336C1089.06 249.611 1093.5 246.605 1098.38 243.457C1125.96 225.628 1169.49 202.913 1196.25 196.359C1181.3 221.094 1152.09 247.591 1120.89 263.612ZM1305.23 163.825C1305.44 163.731 1305.65 163.614 1305.83 163.52C1307.12 162.839 1308.38 161.453 1308.74 159.973C1319.77 149.449 1338.16 142.52 1353.27 141.51C1341.62 151.54 1321.34 161.97 1304.52 164.695C1304.76 164.389 1305.02 164.107 1305.23 163.825ZM1185.05 153.49C1192.82 143.835 1213.1 136.107 1224.3 136.107C1208.32 150.389 1177.28 166.621 1185.05 153.49ZM1110.84 141.51C1099.19 151.54 1078.91 161.97 1062.09 164.695C1072.01 151.54 1093.58 142.661 1110.84 141.51Z" fill="black"/>
</svg>
