<svg width="891" height="347" viewBox="0 0 891 347" fill="none" xmlns="http://www.w3.org/2000/svg">
<path d="M337.157 193.383L193.384 337.167C182.032 348.519 163.64 348.519 152.3 337.167L8.5155 193.383C-2.83653 182.031 -2.83653 163.638 8.5155 152.298L152.288 8.51406C163.64 -2.83797 182.032 -2.83797 193.372 8.51406L337.157 152.298C348.509 163.638 348.509 182.043 337.157 193.383Z" fill="#AC217D"/>
<path d="M470.399 193.383L326.615 337.167C315.263 348.519 296.87 348.519 285.53 337.167L141.746 193.383C130.394 182.031 130.394 163.638 141.746 152.298L285.53 8.51406C296.882 -2.83797 315.275 -2.83797 326.615 8.51406L470.399 152.298C481.739 163.638 481.739 182.043 470.399 193.383Z" fill="#DF2343"/>
<path d="M603.629 193.383L459.857 337.167C448.505 348.519 430.112 348.519 418.772 337.167L274.988 193.383C263.636 182.031 263.636 163.638 274.988 152.298L418.76 8.51406C430.112 -2.83797 448.505 -2.83797 459.845 8.51406L603.629 152.298C614.981 163.638 614.981 182.043 603.629 193.383Z" fill="#FCC600"/>
<path d="M736.868 193.383L593.084 337.167C581.732 348.519 563.339 348.519 551.999 337.167L408.215 193.383C396.863 182.031 396.863 163.638 408.215 152.298L551.999 8.51406C563.351 -2.83797 581.744 -2.83797 593.084 8.51406L736.868 152.298C748.208 163.638 748.208 182.043 736.868 193.383Z" fill="#00A995"/>
<path d="M881.926 194.211L738.142 337.983C726.79 349.335 708.398 349.335 697.058 337.983L553.273 194.211C541.921 182.859 541.921 164.466 553.273 153.126L697.058 9.34181C708.41 -2.01021 726.802 -2.01021 738.142 9.34181L881.926 153.114C893.278 164.466 893.278 182.859 881.926 194.211Z" fill="#00B1EA"/>
<path d="M173.115 230.705C173.308 230.898 173.513 230.898 173.707 231.103C177.279 227.927 180.261 225.149 183.833 221.574C185.813 218.591 188.601 217.601 191.775 216.611C199.259 214.654 206.682 212.795 214.081 210.959C227.684 207.577 241.19 204.256 254.685 200.524C265.801 197.348 277.509 193.375 288.819 187.82C292.983 185.634 297.944 183.255 301.118 178.689C304.546 175.091 305.15 171.226 303.267 168.086C302.893 167.458 302.41 166.854 301.83 166.299C301.794 166.262 301.758 166.214 301.71 166.178C300.72 165.586 299.525 164.982 298.934 163.799C292.38 161.021 285.632 159.234 278.692 158.038C267.974 155.852 257.063 154.862 246.151 153.268C243.568 152.676 240.792 152.072 238.414 151.673C238.414 151.48 238.414 151.082 238.414 150.478C239.802 149.681 241.589 148.292 243.375 147.893C249.326 145.116 255.88 142.133 262.229 139.548C278.499 132.206 294.975 123.86 310.255 112.943C314.419 109.561 318.994 105.793 322.362 101.82C328.517 94.8759 326.924 87.7264 320.177 85.5404C318.789 85.3472 317.594 84.9487 316.797 84.7434C308.059 83.1613 298.74 84.7434 289.615 86.3254C265.801 90.8905 241.396 99.6342 218.571 109.96C211.027 113.535 202.892 117.508 196.338 123.667C194.95 124.863 193.357 126.252 192.572 128.039C192.174 128.631 192.174 130.225 192.174 131.215C192.97 132.604 194.552 131.215 195.155 130.623C199.319 126.058 205.077 123.075 210.436 120.104C222.94 113.547 235.24 108.982 247.938 104.223C253.888 102.037 260.044 100.057 267.189 98.0642C265.994 99.8516 265.608 100.649 265.21 101.434C256.085 114.742 246.755 128.039 237.63 140.949C235.843 143.727 234.057 145.913 231.281 147.507C229.7 148.304 228.106 150.285 227.913 153.268C227.515 154.656 226.924 156.045 225.934 157.434C216.724 169.68 207.189 182.131 197.726 194.571C194.141 199.281 190.568 203.978 187.032 208.664C185.644 210.85 183.459 211.249 181.673 212.034C167.78 215.017 154.286 218.193 140.985 221.562C128.287 224.545 115.782 227.118 103.676 232.081C100.972 232.891 98.341 233.905 95.6373 235.016C94.37 235.535 93.0906 236.079 91.7749 236.646C91.7749 236.84 91.7749 237.238 91.7749 237.443C93.6699 237.274 95.577 237.081 97.472 236.852C124.557 233.7 151.679 225.524 179.488 219.775C176.893 223.76 174.708 227.335 173.115 230.705ZM261.034 117.327C265.403 111.168 269.567 104.815 273.333 98.4627C274.721 96.2768 276.109 95.2865 278.487 94.888C285.826 94.0909 293.369 92.3035 300.515 91.5064C305.077 91.1079 309.845 91.3132 314.601 91.3132C316.387 91.3132 319.368 91.3132 319.754 94.0909C320.153 96.8686 317.763 98.6559 315.783 100.045C310.823 104.417 305.464 108.583 299.911 112.158C287.214 120.696 273.912 127.049 260.816 133.003C256.845 134.79 252.874 136.577 249.108 138.558C248.312 138.751 247.913 138.751 246.139 139.548C251.703 131.227 256.471 124.271 261.034 117.327ZM197.328 204.691C198.873 202.71 200.381 200.754 201.914 198.773C211.595 186.286 220.985 173.859 230.074 160.997C231.655 159.415 232.452 158.014 234.443 158.618C250.315 160.598 266.2 161.589 281.48 165.562C285.644 166.757 289.422 168.146 293.78 169.33C294.576 169.922 295.759 170.32 296.556 171.117C298.137 172.313 298.137 173.702 296.556 175.091C294.769 176.673 292.79 178.267 290.605 179.656C280.092 185.211 269.567 189.184 258.849 191.962C242.108 196.648 225.499 201.068 208.698 205.548C205.572 206.382 202.458 207.215 199.319 208.048C198.124 208.242 196.941 208.242 194.757 208.447C196.133 206.684 196.736 205.693 197.328 204.691Z" fill="black"/>
<path d="M486.464 131.022C481.901 131.022 479.717 134.596 479.318 137.773C478.329 142.736 479.717 142.929 483.482 140.744C486.065 139.161 488.842 136.372 489.433 134.391C489.831 132.616 488.648 131.022 486.464 131.022Z" fill="black"/>
<path d="M541.228 165.174C540.431 165.572 539.646 165.572 538.053 166.369C539.043 164.787 539.634 163.785 540.033 163C541.614 161.019 543.207 159.027 544.402 157.046C545.392 155.657 545.597 154.268 544.402 153.073C543.207 152.276 541.819 152.88 540.636 153.87C538.258 156.732 535.76 159.594 533.937 162.964C533.08 162.952 532.018 163.084 530.715 163.398C528.132 163.99 525.754 165.186 523.171 166.176C517.015 168.954 510.473 170.947 503.328 171.538C501.348 171.937 499.163 171.937 497.172 171.345C494.396 170.753 493.804 169.159 494.589 166.575C494.987 165.584 495.385 164.787 495.977 163.99C499.743 159.22 504.704 155.247 511.065 153.471C515.036 152.481 515.832 153.278 516.424 157.445C516.822 157.843 517.22 159.232 517.619 159.232C518.608 159.232 519.405 158.64 519.996 158.242C522.772 155.065 521.384 150.102 517.413 148.713C515.036 147.916 512.259 147.723 509.87 148.52C501.734 150.307 495.784 154.872 490.823 161.43C490.545 161.998 490.256 162.638 489.978 163.266C489.061 163.531 487.999 164.171 486.852 165.403C482.688 169.968 460.66 181.49 468.59 165.21C471.173 160.838 473.949 156.865 476.532 152.698C480.696 147.143 474.347 143.568 471.764 146.938C468.517 151.334 466.357 157.384 463.545 162.082C463.026 162.275 462.458 162.626 461.843 163.024C460.648 163.616 459.863 164.618 458.668 165.403C455.252 168.265 450.738 171.562 446.417 174.292C442.941 176.49 439.598 178.326 437.039 179.304C427.25 183.374 428.662 175.318 431.993 167.118C432.15 166.852 432.247 166.599 432.307 166.357C432.947 164.824 433.647 163.302 434.347 161.865C434.721 161.104 435.083 160.355 435.445 159.655C441.203 148.737 452.114 131.455 461.239 119.934C473.744 120.332 522.966 120.731 537.45 118.146C543.002 116.951 544.004 113.98 537.45 113.581C533.684 113.388 527.926 113.98 521.578 114.572C501.529 116.758 475.929 117.156 464.619 115.163C467.335 111.19 468.747 108.968 469.7 107.386C471.463 104.463 471.668 103.763 475.53 98.4852C475.929 97.6882 477.111 96.4926 477.317 95.5023C477.317 94.512 477.123 92.7246 476.52 92.326C474.939 90.9372 472.947 92.7246 472.151 94.3066C464.607 104.234 465.802 103.642 458.451 113.968C458.258 114.366 457.86 114.765 457.461 114.958C448.336 116.154 438.608 116.154 429.881 115.357C424.329 114.958 422.929 116.552 422.144 117.736C421.746 118.533 422.337 121.311 428.493 120.513C435.832 120.513 445.56 120.32 454.299 120.115C452.778 122.554 451.04 125.151 449.217 127.868C443.46 136.443 436.677 146.213 431.74 155.923C430.702 157.952 429.748 159.993 428.904 162.01C428.566 162.783 428.228 163.64 427.878 164.546C427.009 164.751 426.031 165.089 424.932 165.584C417.992 169.159 408.058 174.715 401.118 177.299C395.759 179.485 395.566 177.106 397.352 172.142C399.139 168.169 402.12 164.799 401.517 160.621C400.72 151.877 392.585 154.462 387.032 157.239C380.478 160.416 373.731 164.981 367.974 169.751C363.387 173.64 366.489 170.137 369.241 166.997C369.639 166.732 369.941 166.381 370.134 165.971C370.943 165.041 371.631 164.232 371.945 163.797C373.924 161.213 375.518 158.242 377.304 155.452C379.283 152.276 379.682 150.488 378.499 149.691C377.304 148.496 375.518 149.691 373.538 152.276C373.14 153.266 372.741 153.87 372.15 154.655C370.412 157.276 368.638 159.86 366.815 162.396C366.803 162.396 366.803 162.396 366.791 162.396C365.596 162.795 364.413 163.193 363.218 163.785C357.666 168.942 332.85 174.111 327.696 168.942C325.91 167.154 325.91 164.968 329.881 164.968C332.464 164.968 335.24 164.775 337.618 164.171C340.792 163.181 343.773 161.985 346.344 160.403C348.131 159.413 348.927 157.626 348.529 155.633C348.131 153.652 346.549 152.457 344.558 152.252C339.79 152.252 334.431 153.049 329.675 155.235C325.306 157.614 324.316 159.003 322.53 164.171C319.754 174.896 330.665 175.693 337.811 175.294C345.692 174.847 353.804 173.289 361.456 170.439C360.539 171.864 359.621 173.277 358.644 174.702C357.654 175.898 357.256 177.48 358.644 178.869C360.225 180.451 361.818 179.461 363.013 178.869C364.003 178.47 364.606 177.673 365.198 177.082C369.362 174.111 373.14 171.128 377.111 168.35C381.275 165.766 385.837 163.193 390.207 160.802C398.535 158.024 396.363 162.384 393.973 168.145C393.381 170.524 392.186 172.311 391.595 174.896C391.003 178.265 391.993 180.451 394.371 181.647C396.954 182.637 399.73 182.444 402.506 181.248C410.255 178.108 418.161 174.787 425.777 171.309C423.882 179.582 424.764 187.794 437.425 183.434C441.287 182.094 445.596 179.896 449.652 177.504C454.323 174.751 458.656 171.756 461.589 169.558C461.215 172.782 463.158 175.922 466.586 176.49C468.566 176.888 470.956 176.683 472.935 176.49C478.524 175.137 483.665 172.625 488.626 169.944C489.133 173.338 491.704 175.838 495.748 176.888C498.125 177.48 500.708 177.685 502.893 177.082C512.416 176.49 521.155 173.314 529.882 169.534C530.654 169.22 531.403 168.881 532.091 168.483C532.079 168.64 532.066 168.797 532.066 168.942C532.066 171.526 533.454 172.915 536.037 172.915C537.426 172.915 538.814 172.517 540.009 171.925C543.183 170.536 545.766 168.35 548.542 166.563C550.522 165.367 552.115 163.978 554.094 162.589C554.287 163.58 554.493 163.785 554.493 164.377C554.275 168.531 556.339 170.79 559.441 171.683C563.449 172.831 569.17 171.659 573.95 169.256C573.962 170.113 574.203 171.007 574.734 171.925C575.929 174.111 578.307 174.908 580.89 174.509C582.676 174.316 584.861 174.111 586.442 172.915C593.382 169.34 599.743 164.968 606.491 160.802C606.092 163.386 605.694 165.572 605.694 167.746C605.694 179.243 620.371 174.376 628.615 169.232C630.184 170.753 632.127 171.502 634.071 170.536C637.04 169.739 639.43 168.954 642.399 167.36C645.573 165.778 651.524 161.007 654.904 159.413C654.505 159.413 653.914 165.766 649.544 172.323C647.167 177.094 642.399 180.668 637.233 182.25C623.739 188.011 609.846 193.772 597.148 202.105C595.784 203.156 594.384 204.194 592.96 205.233C589.822 207.527 586.599 209.834 583.449 212.431C581.264 214.423 579.079 217.201 577.691 219.979C575.108 224.351 577.293 228.71 582.254 229.713C584.438 230.304 586.816 230.51 589.399 230.304C597.257 229.676 604.233 226.911 610.944 223.239C612.707 222.273 614.457 221.259 616.195 220.184C629.098 212.044 638.621 200.33 646.563 187.419C647.951 185.04 649.931 182.057 652.115 181.067C658.669 178.881 664.813 176.502 670.969 174.521C682.423 170.451 676.69 173.785 685.767 170.898C685.887 171.236 686.032 171.587 686.237 171.937C687.432 174.123 689.81 174.92 692.393 174.521C694.18 174.328 696.364 174.123 697.945 172.927C704.886 169.352 711.247 164.981 717.994 160.814C717.596 163.398 717.197 165.584 717.197 167.758C717.197 181.453 738.03 171.925 743.993 166.369C745.779 165.572 744.789 163.99 743.401 163.592C742.206 163.398 741.024 164.389 740.022 164.787C736.256 166.575 732.478 168.954 729.304 169.751C717.197 173.326 727.517 154.268 729.11 150.887C729.907 149.498 730.498 148.302 730.692 146.914C730.885 145.718 730.498 144.728 729.895 143.943C729.098 143.544 727.71 143.544 726.914 143.749C726.117 143.943 725.332 144.945 724.729 145.73C722.943 147.517 721.156 149.498 719.37 151.285C718.175 152.674 716.594 153.073 715.206 152.88C705.682 152.082 697.547 155.259 690.595 161.213C689.75 161.949 689.074 162.638 688.458 163.35C688.06 163.471 687.65 163.628 687.227 163.797C670.752 169.751 673.926 168.169 657.656 173.93L652.695 175.512C656.267 168.567 659.647 160.814 663.015 153.073C663.811 151.285 664.004 149.691 662.616 148.508C661.82 147.119 660.239 147.711 658.645 148.109C657.45 148.508 656.461 148.508 655.266 148.701C653.684 148.701 651.898 148.701 650.305 149.099C644.354 150.682 638.995 153.266 634.228 157.638C632.043 159.232 630.256 161.406 628.868 163.592C628.543 164.026 628.289 164.485 628.096 164.968C624.451 166.732 620.83 168.978 617.752 169.751C605.646 173.326 615.966 154.268 617.559 150.887C618.355 149.498 618.947 148.302 619.14 146.914C619.333 145.718 618.947 144.728 618.343 143.943C617.547 143.544 616.159 143.544 615.362 143.749C614.565 143.943 613.781 144.945 613.177 145.73C611.391 147.517 609.605 149.498 607.818 151.285C606.623 152.674 605.042 153.073 603.654 152.88C594.131 152.082 585.996 155.259 579.043 161.213C578.029 162.106 577.257 162.915 576.521 163.797C575.036 164.256 573.419 164.896 572.501 165.174C566.949 166.961 558.21 170.729 560.793 160.802C561.385 159.22 561.988 157.42 562.58 155.645C563.376 154.063 563.171 152.469 561.59 151.877C560.6 151.285 558.814 151.285 558.017 151.877C557.426 152.046 556.943 152.396 556.508 152.783C555.917 153.314 555.41 153.918 554.843 154.256C550.365 158.036 545.802 161.599 541.228 165.174ZM343.182 158.036C340.007 161.019 332.27 162.807 328.299 162.408C334.853 158.036 346.755 153.459 343.182 158.036ZM607.372 219.616C602.688 222.297 597.909 224.423 593.213 225.739C577.933 229.314 581.3 220.776 591.029 213.819C592.731 212.419 594.77 210.873 597.015 209.254C609.701 200.088 629.725 188.41 642.037 185.04C635.157 197.757 621.723 211.38 607.372 219.616ZM692.164 168.314C692.26 168.265 692.357 168.205 692.442 168.157C693.033 167.807 693.612 167.094 693.781 166.333C698.851 160.923 707.312 157.36 714.264 156.841C708.905 161.998 699.575 167.36 691.838 168.761C691.947 168.604 692.067 168.459 692.164 168.314ZM636.883 163C640.456 158.036 649.786 154.063 654.94 154.063C647.589 161.406 633.31 169.751 636.883 163ZM602.749 156.841C597.39 161.998 588.06 167.36 580.323 168.761C584.885 161.998 594.807 157.433 602.749 156.841Z" fill="black"/>
<path d="M669.728 220.331C669.917 220.331 670.079 220.399 670.215 220.535C670.352 220.661 670.42 220.839 670.42 221.07V222.689C670.42 222.878 670.357 223.04 670.231 223.176C670.105 223.313 669.938 223.381 669.728 223.381H656.365C655.904 223.381 655.673 223.15 655.673 222.689V200.727C655.673 200.538 655.736 200.376 655.862 200.239C655.988 200.103 656.166 200.035 656.397 200.035H658.016C658.215 200.035 658.377 200.093 658.503 200.208C658.639 200.323 658.708 200.496 658.708 200.727V220.331H669.728Z" fill="black"/>
<path d="M673.697 200.727C673.697 200.538 673.754 200.376 673.869 200.239C673.995 200.103 674.168 200.035 674.388 200.035H676.023C676.212 200.035 676.38 200.098 676.526 200.224C676.673 200.349 676.746 200.517 676.746 200.727V222.689C676.746 223.15 676.505 223.381 676.023 223.381H674.388C673.927 223.381 673.697 223.15 673.697 222.689V200.727Z" fill="black"/>
<path d="M698.215 206.371C698.215 207.272 698.037 208.121 697.68 208.917C697.334 209.714 696.847 210.395 696.218 210.961C696.7 211.244 697.135 211.585 697.523 211.983C697.921 212.381 698.262 212.821 698.545 213.304C698.828 213.775 699.043 214.284 699.189 214.829C699.347 215.374 699.425 215.939 699.425 216.526C699.425 217.438 699.258 218.308 698.922 219.136C698.587 219.964 698.126 220.692 697.539 221.321C696.952 221.95 696.255 222.453 695.448 222.831C694.651 223.197 693.787 223.381 692.854 223.381H682.588C682.378 223.381 682.205 223.323 682.069 223.208C681.933 223.093 681.865 222.92 681.865 222.689V200.79C681.865 200.287 682.106 200.035 682.588 200.035H691.816C692.728 200.035 693.572 200.197 694.347 200.522C695.123 200.847 695.799 201.293 696.375 201.859C696.952 202.425 697.403 203.095 697.727 203.871C698.052 204.636 698.215 205.469 698.215 206.371ZM684.868 212.863V220.378H692.822C693.305 220.378 693.76 220.273 694.19 220.064C694.62 219.854 694.992 219.576 695.306 219.23C695.631 218.874 695.883 218.465 696.061 218.004C696.25 217.533 696.344 217.04 696.344 216.526C696.344 216.034 696.25 215.567 696.061 215.127C695.883 214.687 695.637 214.299 695.322 213.964C695.008 213.628 694.636 213.361 694.206 213.162C693.776 212.963 693.315 212.863 692.822 212.863H684.868ZM695.133 206.371C695.133 205.888 695.05 205.443 694.882 205.034C694.725 204.626 694.494 204.274 694.19 203.981C693.897 203.677 693.546 203.446 693.137 203.289C692.728 203.122 692.277 203.038 691.785 203.038H684.868V209.861H691.753C692.236 209.861 692.681 209.772 693.09 209.593C693.509 209.415 693.865 209.169 694.159 208.855C694.463 208.54 694.698 208.173 694.866 207.754C695.044 207.324 695.133 206.863 695.133 206.371Z" fill="black"/>
<path d="M703.189 200.79C703.189 200.287 703.42 200.035 703.881 200.035H712.952C714 200.035 714.975 200.234 715.876 200.632C716.777 201.02 717.564 201.555 718.234 202.236C718.905 202.907 719.429 203.698 719.806 204.61C720.194 205.511 720.388 206.475 720.388 207.502C720.388 208.236 720.283 208.944 720.074 209.625C719.875 210.296 719.592 210.919 719.225 211.496C718.858 212.072 718.418 212.591 717.904 213.052C717.391 213.503 716.819 213.88 716.191 214.184L720.341 222.689V222.893C720.341 223.218 720.147 223.381 719.759 223.381H717.857C717.532 223.381 717.281 223.187 717.102 222.799L713.329 214.876C713.245 214.886 713.151 214.891 713.046 214.891C712.952 214.891 712.811 214.897 712.622 214.907C712.444 214.907 712.203 214.907 711.899 214.907C711.595 214.907 711.191 214.907 710.688 214.907C710.196 214.907 709.588 214.907 708.865 214.907C708.141 214.907 707.266 214.907 706.239 214.907V222.689C706.239 223.15 705.998 223.381 705.516 223.381H703.881C703.42 223.381 703.189 223.15 703.189 222.689V200.79ZM717.37 207.471C717.37 206.895 717.254 206.339 717.024 205.805C716.804 205.27 716.495 204.798 716.096 204.39C715.708 203.981 715.242 203.656 714.697 203.415C714.163 203.163 713.581 203.038 712.952 203.038H706.239V211.904H713.015C713.633 211.904 714.21 211.784 714.744 211.543C715.279 211.302 715.74 210.977 716.128 210.568C716.515 210.159 716.819 209.688 717.04 209.153C717.26 208.619 717.37 208.058 717.37 207.471Z" fill="black"/>
<path d="M740.558 200.035C741.04 200.035 741.281 200.287 741.281 200.79V202.346C741.281 202.545 741.218 202.718 741.093 202.865C740.977 203.012 740.789 203.085 740.527 203.085H727.856V209.546H737.823C738.011 209.546 738.174 209.604 738.31 209.719C738.446 209.824 738.514 210.007 738.514 210.269V211.873C738.514 212.062 738.457 212.229 738.342 212.376C738.226 212.523 738.053 212.596 737.823 212.596H727.856V220.331H740.59C741.072 220.331 741.313 220.577 741.313 221.07V222.689C741.313 223.15 741.082 223.381 740.621 223.381H725.497C725.036 223.381 724.806 223.161 724.806 222.72V200.758C724.806 200.276 725.036 200.035 725.497 200.035H740.558Z" fill="black"/>
<path d="M745.01 200.79C745.01 200.287 745.24 200.035 745.701 200.035H754.772C755.821 200.035 756.795 200.234 757.697 200.632C758.598 201.02 759.384 201.555 760.055 202.236C760.726 202.907 761.25 203.698 761.627 204.61C762.015 205.511 762.209 206.475 762.209 207.502C762.209 208.236 762.104 208.944 761.894 209.625C761.695 210.296 761.412 210.919 761.045 211.496C760.678 212.072 760.238 212.591 759.725 213.052C759.211 213.503 758.64 213.88 758.011 214.184L762.161 222.689V222.893C762.161 223.218 761.967 223.381 761.58 223.381H759.677C759.353 223.381 759.101 223.187 758.923 222.799L755.15 214.876C755.066 214.886 754.972 214.891 754.867 214.891C754.772 214.891 754.631 214.897 754.442 214.907C754.264 214.907 754.023 214.907 753.719 214.907C753.415 214.907 753.012 214.907 752.509 214.907C752.016 214.907 751.408 214.907 750.685 214.907C749.962 214.907 749.087 214.907 748.06 214.907V222.689C748.06 223.15 747.819 223.381 747.336 223.381H745.701C745.24 223.381 745.01 223.15 745.01 222.689V200.79ZM759.19 207.471C759.19 206.895 759.075 206.339 758.844 205.805C758.624 205.27 758.315 204.798 757.917 204.39C757.529 203.981 757.063 203.656 756.518 203.415C755.983 203.163 755.401 203.038 754.772 203.038H748.06V211.904H754.835C755.454 211.904 756.03 211.784 756.565 211.543C757.099 211.302 757.56 210.977 757.948 210.568C758.336 210.159 758.64 209.688 758.86 209.153C759.08 208.619 759.19 208.058 759.19 207.471Z" fill="black"/>
<path d="M766.61 200.727C766.61 200.538 766.668 200.376 766.783 200.239C766.909 200.103 767.082 200.035 767.302 200.035H768.937C769.126 200.035 769.293 200.098 769.44 200.224C769.587 200.349 769.66 200.517 769.66 200.727V222.689C769.66 223.15 769.419 223.381 768.937 223.381H767.302C766.841 223.381 766.61 223.15 766.61 222.689V200.727ZM769.786 197.284C769.587 197.724 769.309 197.944 768.953 197.944H767.507C767.297 197.944 767.155 197.907 767.082 197.834C767.019 197.761 766.988 197.651 766.988 197.504C767.009 197.431 767.024 197.352 767.035 197.268C767.045 197.174 767.087 197.064 767.161 196.938L768.544 193.715C768.67 193.485 768.79 193.317 768.906 193.212C769.031 193.107 769.194 193.055 769.393 193.055H770.949C771.222 193.055 771.358 193.17 771.358 193.401C771.358 193.485 771.353 193.574 771.342 193.668C771.332 193.762 771.29 193.867 771.217 193.982L769.786 197.284Z" fill="black"/>
<path d="M776.65 222.799C776.576 222.977 776.471 223.119 776.335 223.224C776.199 223.328 776.026 223.381 775.816 223.381H774.15C773.668 223.381 773.427 223.197 773.427 222.831C773.427 222.757 773.427 222.7 773.427 222.658C773.437 222.605 773.448 222.558 773.458 222.516C773.469 222.474 773.479 222.437 773.49 222.406L782.561 200.617C782.582 200.564 782.608 200.507 782.639 200.444C782.671 200.37 782.713 200.307 782.765 200.255C782.817 200.192 782.891 200.14 782.985 200.098C783.09 200.056 783.226 200.035 783.394 200.035H784.431C784.589 200.035 784.714 200.056 784.809 200.098C784.914 200.14 784.992 200.192 785.045 200.255C785.097 200.307 785.139 200.37 785.17 200.444C785.202 200.507 785.228 200.564 785.249 200.617L794.241 222.406C794.252 222.458 794.262 222.511 794.273 222.563C794.283 222.616 794.294 222.668 794.304 222.72C794.315 222.762 794.32 222.799 794.32 222.831C794.32 223.197 794.079 223.381 793.597 223.381H791.93C791.721 223.381 791.548 223.328 791.412 223.224C791.275 223.119 791.171 222.977 791.097 222.799L789.368 218.476H778.332C777.965 219.409 777.63 220.252 777.326 221.007C777.022 221.761 776.796 222.359 776.65 222.799ZM779.589 215.426H788.157L783.913 204.673L779.589 215.426Z" fill="black"/>
</svg>
